#!OML:ASF E:\Steps\Project 1\Capture day 1\Session 2\Subject.ASF
:FULLY-SPECIFIED
:DEGREES
331
root 10.0035 23.0526 12.9091 -152.093 -0.279331 176.175
lowerback -18.144 -3.55924 -6.12143
upperback 1.64899 -3.44529 -0.194892
thorax 12.4442 -2.04731 2.25847
lowerneck 2.76454 -3.61056 -10.4404
upperneck 6.23378 -5.31141 16.9542
head 2.08032 -2.40118 6.8645
rclavicle 1.64991e-014 4.77083e-015
rhumerus -51.8536 -29.3024 -59.2459
rradius 14.1859
rwrist 36.7975
rhand -4.67597 -55.7385
rfingers 7.12502
rthumb 21.1047 -84.6099
lclavicle 1.64991e-014 4.77083e-015
lhumerus -35.045 0.767501 83.9531
lradius 25.4974
lwrist -2.79637
lhand -28.2282 -12.0152
lfingers 7.12502
lthumb -1.60635 17.9585
rfemur -49.2876 -3.07697 20.3729
rtibia 68.8165
rfoot 10.0103 -10.322
rtoes -23.3988
lfemur -46.9927 4.48193 -21.2168
ltibia 76.6642
lfoot 24.2806 5.16596
ltoes -49.1503
332
root 10.0204 22.9594 12.7233 -152.397 -0.516163 176.114
lowerback -16.8683 -3.54333 -6.11517
upperback 2.08329 -3.47795 -0.275129
thorax 12.1963 -2.05847 2.20329
lowerneck 2.72627 -3.46392 -10.8673
upperneck 6.0706 -5.11678 17.7294
head 2.03868 -2.29504 7.19632
rclavicle 2.14687e-014 7.15625e-015
rhumerus -51.9445 -27.8275 -60.5977
rradius 15.0353
rwrist 34.0285
rhand -3.87133 -56.4886
rfingers 7.12502
rthumb 21.8775 -85.2718
lclavicle 2.14687e-014 7.15625e-015
lhumerus -35.6213 0.29732 83.8096
lradius 25.9031
lwrist -2.16558
lhand -28.3972 -11.8715
lfingers 7.12502
lthumb -1.76955 18.1009
rfemur -50.1192 -2.82951 20.027
rtibia 67.0102
rfoot 9.65185 -10.5281
rtoes -22.986
lfemur -48.4191 4.20646 -21.1835
ltibia 77.3061
lfoot 23.9856 5.10483
ltoes -48.3064
333
root 10.0388 22.8563 12.5379 -152.619 -0.732825 175.984
lowerback -15.4851 -3.53137 -6.19432
upperback 2.50397 -3.5199 -0.33817
thorax 11.8709 -2.08361 2.21979
lowerneck 2.41539 -3.49353 -11.0125
upperneck 6.00648 -5.14831 18.1864
head 2.09163 -2.29063 7.36479
rclavicle 2.50469e-014 -5.96354e-015
rhumerus -52.0497 -26.3003 -61.946
rradius 15.9452
rwrist 31.5961
rhand -3.27421 -56.5714
rfingers 7.12502
rthumb 22.4508 -85.2865
lclavicle 2.50469e-014 -5.96354e-015
lhumerus -36.2485 -0.00125054 83.6721
lradius 26.5559
lwrist -1.63694
lhand -29.1707 -11.3056
lfingers 7.12502
lthumb -2.51658 18.6593
rfemur -51.0105 -2.66556 19.6097
rtibia 64.9022
rfoot 9.44338 -10.6316
rtoes -23.2455
lfemur -49.912 3.83883 -21.2139
ltibia 77.7649
lfoot 23.7387 5.09231
ltoes -47.6385
334
root 10.0531 22.7383 12.3599 -152.394 -0.904961 175.937
lowerback -14.4795 -3.54144 -6.07412
upperback 2.69045 -3.61916 -0.394838
thorax 11.4871 -2.11967 2.10864
lowerneck -9.65612 0.429249 -6.45089
upperneck 10.6114 0.234433 16.9839
head 4.73424 1.21383 6.48569
rclavicle -5.36719e-015 -9.93923e-015
rhumerus -52.3749 -24.6277 -63.2364
rradius 16.7247
rwrist 30.11
rhand -3.66461 -56.2746
rfingers 7.12502
rthumb 22.076 -85.0345
lclavicle -5.36719e-015 -9.93923e-015
lhumerus -37.1733 -0.0389184 83.3542
lradius 27.3283
lwrist -1.2259
lhand -29.4362 -11.3404
lfingers 7.12502
lthumb -2.77297 18.6213
rfemur -52.3661 -2.52638 19.2698
rtibia 62.6331
rfoot 9.33009 -10.5048
rtoes -23.9882
lfemur -51.9678 3.50436 -21.2329
ltibia 77.97
lfoot 23.6337 4.73367
ltoes -48.2182
335
root 10.0639 22.6061 12.1842 -152.016 -1.04851 176.086
lowerback -13.6632 -3.53925 -5.73371
upperback 2.74253 -3.73438 -0.371922
thorax 11.0516 -2.14804 1.95644
lowerneck -9.42224 0.528705 -6.69233
upperneck 10.5306 0.39781 17.2109
head 4.64626 1.2892 6.60586
rclavicle -2.18663e-014 1.43125e-014
rhumerus -52.7047 -22.625 -64.6016
rradius 17.7985
rwrist 27.1766
rhand -3.65498 -56.9388
rfingers 7.12502
rthumb 22.0852 -85.6975
lclavicle -2.18663e-014 1.43125e-014
lhumerus -38.1869 0.0743127 83.0208
lradius 28.0376
lwrist -0.610254
lhand -29.305 -11.732
lfingers 7.12502
lthumb -2.64627 18.2313
rfemur -53.8928 -2.29002 19.1305
rtibia 60.4484
rfoot 9.19818 -10.4013
rtoes -24.9867
lfemur -54.2177 3.25908 -21.0646
ltibia 77.9565
lfoot 23.6716 4.41891
ltoes -48.927
336
root 10.0749 22.4663 12.0021 -151.856 -1.26554 176.166
lowerback -12.6137 -3.41128 -5.47476
upperback 3.08172 -3.66817 -0.411197
thorax 10.7858 -2.1047 1.82797
lowerneck -10.1763 0.462889 -6.61182
upperneck 10.5865 0.301378 17.3759
head 4.80963 1.29376 6.65933
rclavicle 3.02153e-014 1.15295e-014
rhumerus -52.8868 -21.1072 -65.9843
rradius 19.0069
rwrist 24.4848
rhand -3.84467 -57.2427
rfingers 7.12502
rthumb 21.9031 -86.0229
lclavicle 3.02153e-014 1.15295e-014
lhumerus -38.5179 -0.142465 82.7371
lradius 28.6915
lwrist 0.132452
lhand -29.1917 -11.7333
lfingers 7.12502
lthumb -2.53687 18.2314
rfemur -55.0166 -2.20029 18.9679
rtibia 58.1073
rfoot 9.14624 -10.6238
rtoes -25.4734
lfemur -56.0106 2.95301 -20.8812
ltibia 77.4925
lfoot 23.7873 4.27604
ltoes -48.8878
337
root 10.0858 22.3187 11.8157 -151.757 -1.50756 176.141
lowerback -11.9275 -3.50633 -5.39751
upperback 3.32641 -3.85753 -0.347744
thorax 10.6693 -2.19876 1.83844
lowerneck -9.39525 0.650144 -6.84042
upperneck 9.80447 0.649855 17.5168
head 4.39088 1.40067 6.72413
rclavicle 2.24627e-014 -3.1408e-014
rhumerus -53.3153 -19.121 -67.0268
rradius 20.2481
rwrist 21.9001
rhand -4.0983 -57.3321
rfingers 7.12502
rthumb 21.6596 -86.1406
lclavicle 2.24627e-014 -3.1408e-014
lhumerus -39.4619 0.0651562 82.504
lradius 29.5293
lwrist 0.721928
lhand -29.3763 -11.7289
lfingers 7.12502
lthumb -2.71511 18.2336
rfemur -55.8934 -2.31442 18.7476
rtibia 55.5055
rfoot 9.12068 -10.9166
rtoes -25.344
lfemur -57.5421 2.57696 -20.7364
ltibia 76.5943
lfoot 23.9193 4.52912
ltoes -47.1159
338
root 10.0951 22.1583 11.6249 -151.629 -1.6472 176.12
lowerback -11.2156 -3.49126 -5.28593
upperback 3.7903 -3.9046 -0.351787
thorax 10.7614 -2.23145 1.78198
lowerneck -9.72766 0.603171 -7.00466
upperneck 9.1957 0.664361 17.6954
head 4.2652 1.40096 6.80141
rclavicle -4.90998e-014 7.55382e-015
rhumerus -53.3653 -18.1734 -67.6352
rradius 21.2737
rwrist 19.9095
rhand -4.44076 -57.4617
rfingers 7.12502
rthumb 21.3307 -86.3077
lclavicle -4.90998e-014 7.55382e-015
lhumerus -39.8024 -0.21498 82.3694
lradius 30.3693
lwrist 1.66726
lhand -29.7178 -11.6728
lfingers 7.12502
lthumb -3.04493 18.2852
rfemur -56.6874 -2.43173 18.5176
rtibia 52.6796
rfoot 9.19016 -11.1713
rtoes -25.0745
lfemur -58.9488 2.22258 -20.586
ltibia 75.3132
lfoot 24.1005 5.11343
ltoes -44.8192
339
root 10.1063 21.9852 11.4284 -151.53 -1.79066 176.047
lowerback -10.052 -3.4496 -5.17775
upperback 3.9272 -3.944 -0.405122
thorax 10.2141 -2.24566 1.71711
lowerneck -9.96162 0.557024 -7.00057
upperneck 8.98884 0.626813 17.8064
head 4.25011 1.39411 6.83462
rclavicle -6.95746e-015 -9.93923e-015
rhumerus -54.043 -17.0203 -68.1228
rradius 22.5669
rwrist 18.1586
rhand -4.44009 -57.5173
rfingers 7.12502
rthumb 21.3313 -86.3633
lclavicle -6.95746e-015 -9.93923e-015
lhumerus -40.8068 -0.703488 82.1891
lradius 31.4597
lwrist 2.78671
lhand -29.9712 -11.5757
lfingers 7.12502
lthumb -3.28966 18.3787
rfemur -57.2704 -2.57521 18.217
rtibia 49.5758
rfoot 9.35928 -11.7313
rtoes -24.3172
lfemur -60.1633 1.85352 -20.469
ltibia 73.6763
lfoot 24.2555 5.20881
ltoes -44.6992
340
root 10.1188 21.7979 11.233 -151.305 -1.8598 176.003
lowerback -9.2628 -3.42596 -5.13968
upperback 4.23207 -3.98124 -0.37751
thorax 10.0867 -2.27589 1.75066
lowerneck -10.5506 0.487396 -6.9845
upperneck 8.7799 0.562962 17.8083
head 4.30007 1.3785 6.8354
rclavicle -8.54774e-015 7.55382e-015
rhumerus -54.3624 -15.7557 -68.7092
rradius 24.1323
rwrist 16.5787
rhand -4.02152 -57.1408
rfingers 7.12502
rthumb 21.7333 -85.9408
lclavicle -8.54774e-015 7.55382e-015
lhumerus -41.4859 -0.995049 82.0679
lradius 32.5601
lwrist 3.44998
lhand -30.2307 -11.6817
lfingers 7.12502
lthumb -3.54022 18.2687
rfemur -57.9467 -2.6571 17.92
rtibia 46.4686
rfoot 9.55083 -12.612
rtoes -23.7219
lfemur -61.4326 1.63396 -20.359
ltibia 71.7859
lfoot 24.4332 5.00518
ltoes -45.2141
341
root 10.1322 21.5989 11.0344 -151.091 -1.76629 175.981
lowerback -8.71801 -3.46517 -5.30551
upperback 4.36774 -4.06461 -0.248102
thorax 9.94505 -2.33802 1.99152
lowerneck -10.1048 0.583307 -7.05892
upperneck 8.51587 0.724761 17.9718
head 4.12179 1.4403 6.89437
rclavicle -1.59028e-015 -1.23246e-014
rhumerus -55.0715 -13.9316 -69.1944
rradius 25.9625
rwrist 14.6837
rhand -3.76683 -56.9508
rfingers 7.12502
rthumb 21.9779 -85.7223
lclavicle -1.59028e-015 -1.23246e-014
lhumerus -42.721 -1.14211 82.0893
lradius 33.7371
lwrist 3.82374
lhand -30.3017 -11.9269
lfingers 7.12502
lthumb -3.60877 18.0223
rfemur -58.5046 -2.62498 17.6032
rtibia 43.1849
rfoot 10.2821 -13.6519
rtoes -23.19
lfemur -62.5128 1.60376 -20.2929
ltibia 69.5654
lfoot 24.6105 4.89921
ltoes -45.7461
